<svg width="62" height="51" viewBox="0 0 62 51" fill="none" xmlns="http://www.w3.org/2000/svg">
<path d="M61.1201 18.4761C61.1201 18.5058 61.1201 18.5327 61.1012 18.5624L54.9883 46.5586C54.8001 47.5444 54.274 48.4337 53.5005 49.0733C52.7271 49.7129 51.7548 50.0627 50.7512 50.0625H11.246C10.2429 50.0621 9.27124 49.712 8.49838 49.0725C7.72552 48.4329 7.19979 47.5439 7.0117 46.5586L0.898729 18.5624C0.898729 18.5327 0.885252 18.5058 0.879862 18.4761C0.712557 17.5492 0.853316 16.593 1.28063 15.7536C1.70795 14.9142 2.39833 14.2378 3.24627 13.8278C4.09421 13.4177 5.05309 13.2965 5.9764 13.4827C6.8997 13.6689 7.73665 14.1523 8.35935 14.859L17.4345 24.6403L27.0837 2.99963C27.0841 2.99065 27.0841 2.98166 27.0837 2.97268C27.4287 2.22432 27.981 1.59048 28.675 1.14621C29.3691 0.701933 30.1759 0.46582 31 0.46582C31.8241 0.46582 32.6309 0.701933 33.3249 1.14621C34.019 1.59048 34.5712 2.22432 34.9163 2.97268C34.9158 2.98166 34.9158 2.99065 34.9163 2.99963L44.5655 24.6403L53.6406 14.859C54.2646 14.1576 55.1005 13.6789 56.0212 13.4957C56.942 13.3126 57.8974 13.4349 58.7424 13.8441C59.5873 14.2533 60.2757 14.9271 60.7029 15.7631C61.13 16.5991 61.2728 17.5516 61.1093 18.4761H61.1201Z" fill="#FFD000"/>
</svg>
