<svg width="25" height="28" viewBox="0 0 25 28" fill="none" xmlns="http://www.w3.org/2000/svg">
<path d="M23.3796 4.62581C23.7443 4.62581 24.0941 4.7707 24.3521 5.02862C24.61 5.28653 24.7549 5.63634 24.7549 6.00108C24.7549 6.36582 24.61 6.71563 24.3521 6.97354C24.0941 7.23146 23.7443 7.37635 23.3796 7.37635H22.0043L22.0002 7.47399L20.7171 25.4501C20.6677 26.1441 20.3572 26.7935 19.8481 27.2677C19.339 27.7418 18.6691 28.0054 17.9734 28.0054H6.78008C6.08439 28.0054 5.41453 27.7418 4.90543 27.2677C4.39633 26.7935 4.08581 26.1441 4.03642 25.4501L2.75329 7.47537L2.75054 7.37635H1.37527C1.01053 7.37635 0.66072 7.23146 0.402807 6.97354C0.144894 6.71563 0 6.36582 0 6.00108C0 5.63634 0.144894 5.28653 0.402807 5.02862C0.66072 4.7707 1.01053 4.62581 1.37527 4.62581H23.3796ZM15.128 0.5C15.4927 0.5 15.8425 0.644894 16.1004 0.902807C16.3583 1.16072 16.5032 1.51053 16.5032 1.87527C16.5032 2.24001 16.3583 2.58982 16.1004 2.84773C15.8425 3.10565 15.4927 3.25054 15.128 3.25054H9.62689C9.26215 3.25054 8.91234 3.10565 8.65443 2.84773C8.39651 2.58982 8.25162 2.24001 8.25162 1.87527C8.25162 1.51053 8.39651 1.16072 8.65443 0.902807C8.91234 0.644894 9.26215 0.5 9.62689 0.5H15.128Z" fill="#FF0000"/>
</svg>
