<svg width="21" height="22" viewBox="0 0 21 22" fill="none" xmlns="http://www.w3.org/2000/svg">
<path fill-rule="evenodd" clip-rule="evenodd" d="M10.3217 3.26245H2.63307C1.28877 3.26245 0.199951 4.41696 0.199951 5.83912V18.72C0.199951 20.1434 1.28877 21.2967 2.63307 21.2967H16.0152C17.3595 21.2967 18.4483 20.1434 18.4483 18.72V9.29171L13.6867 14.3331C13.2709 14.7778 12.7294 15.085 12.1344 15.2139L8.87279 15.9049C6.74382 16.355 4.86788 14.3684 5.29368 12.1153L5.94575 8.66154C6.06376 8.03866 6.3533 7.46566 6.77788 7.01675L10.3217 3.26245Z" fill="currentColor"/>
<path fill-rule="evenodd" clip-rule="evenodd" d="M20.0281 1.60226C19.9051 1.29086 19.7248 1.0053 19.4965 0.7604C19.272 0.520894 19.0013 0.329294 18.7008 0.197134C18.4048 0.0671278 18.085 0 17.7616 0C17.4383 0 17.1185 0.0671278 16.8225 0.197134C16.522 0.329294 16.2513 0.520894 16.0268 0.7604L15.3626 1.46357L18.8322 5.13758L19.4965 4.43319C19.7272 4.19015 19.9078 3.9041 20.0281 3.59133C20.2787 2.95199 20.2787 2.2416 20.0281 1.60226ZM17.1132 6.95876L13.6424 3.28354L7.83089 9.43932C7.74514 9.53068 7.68731 9.64465 7.66422 9.76779L7.01214 13.2228C6.92698 13.6729 7.3029 14.0695 7.72748 13.9795L10.9903 13.2897C11.109 13.2633 11.2171 13.2018 11.3005 13.1133L17.1132 6.95876Z" fill="currentColor"/>
</svg>
