<svg width="87" height="87" viewBox="0 0 87 87" fill="none" xmlns="http://www.w3.org/2000/svg">
<path d="M18.4167 75.75C16.4458 75.75 14.7593 75.0489 13.357 73.6466C11.9547 72.2443 11.2524 70.5566 11.25 68.5833V18.4167C11.25 16.4458 11.9523 14.7593 13.357 13.357C14.7617 11.9547 16.4482 11.2524 18.4167 11.25H68.5833C70.5542 11.25 72.2419 11.9523 73.6466 13.357C75.0513 14.7617 75.7524 16.4482 75.75 18.4167V68.5833C75.75 70.5542 75.0489 72.2419 73.6466 73.6466C72.2443 75.0513 70.5566 75.7524 68.5833 75.75H18.4167ZM22 61.4167H65L51.5625 43.5L40.8125 57.8333L32.75 47.0833L22 61.4167Z" fill="#292100"/>
</svg>
