<svg width="44" height="45" viewBox="0 0 44 45" fill="none" xmlns="http://www.w3.org/2000/svg">
<path d="M25.125 3.75C25.125 2.9212 24.7958 2.12634 24.2097 1.54029C23.6237 0.954241 22.8288 0.625 22 0.625C21.1712 0.625 20.3763 0.954241 19.7903 1.54029C19.2042 2.12634 18.875 2.9212 18.875 3.75V19.375H3.25C2.4212 19.375 1.62634 19.7042 1.04029 20.2903C0.454241 20.8763 0.125 21.6712 0.125 22.5C0.125 23.3288 0.454241 24.1237 1.04029 24.7097C1.62634 25.2958 2.4212 25.625 3.25 25.625H18.875V41.25C18.875 42.0788 19.2042 42.8737 19.7903 43.4597C20.3763 44.0458 21.1712 44.375 22 44.375C22.8288 44.375 23.6237 44.0458 24.2097 43.4597C24.7958 42.8737 25.125 42.0788 25.125 41.25V25.625H40.75C41.5788 25.625 42.3737 25.2958 42.9597 24.7097C43.5458 24.1237 43.875 23.3288 43.875 22.5C43.875 21.6712 43.5458 20.8763 42.9597 20.2903C42.3737 19.7042 41.5788 19.375 40.75 19.375H25.125V3.75Z" fill="white"/>
</svg>
