<svg width="17" height="17" viewBox="0 0 17 17" fill="none" xmlns="http://www.w3.org/2000/svg">
<path d="M8.50004 0.583496C12.8724 0.583496 16.4167 4.12779 16.4167 8.50016C16.4167 12.8725 12.8724 16.4168 8.50004 16.4168C4.12767 16.4168 0.583374 12.8725 0.583374 8.50016C0.583374 4.12779 4.12767 0.583496 8.50004 0.583496ZM8.50004 3.75016C8.29008 3.75016 8.08871 3.83357 7.94025 3.98204C7.79178 4.1305 7.70837 4.33187 7.70837 4.54183V8.50016C7.70842 8.71011 7.79186 8.91144 7.94033 9.05987L10.3153 11.4349C10.4646 11.5791 10.6646 11.6589 10.8722 11.6571C11.0798 11.6553 11.2783 11.572 11.4251 11.4252C11.5719 11.2784 11.6551 11.0799 11.6569 10.8723C11.6588 10.6647 11.579 10.4648 11.4347 10.3155L9.29171 8.17241V4.54183C9.29171 4.33187 9.2083 4.1305 9.05983 3.98204C8.91137 3.83357 8.71 3.75016 8.50004 3.75016Z" fill="#FFD000"/>
</svg>
