<svg width="101" height="101" viewBox="0 0 101 101" fill="none" xmlns="http://www.w3.org/2000/svg">
<path d="M71.5417 44.1875V29.4583C71.5417 28.3422 71.0983 27.2718 70.3091 26.4826C69.5199 25.6934 68.4495 25.25 67.3333 25.25H16.8333C15.7172 25.25 14.6468 25.6934 13.8576 26.4826C13.0684 27.2718 12.625 28.3422 12.625 29.4583V71.5417C12.625 72.6578 13.0684 73.7282 13.8576 74.5174C14.6468 75.3066 15.7172 75.75 16.8333 75.75H67.3333C68.4495 75.75 69.5199 75.3066 70.3091 74.5174C71.0983 73.7282 71.5417 72.6578 71.5417 71.5417V56.8125L88.375 73.6458V27.3542L71.5417 44.1875Z" fill="#292100"/>
</svg>
