<svg width="63" height="64" viewBox="0 0 63 64" fill="none" xmlns="http://www.w3.org/2000/svg">
<path d="M10.5 55.625C9.05625 55.625 7.82075 55.1114 6.7935 54.0841C5.76625 53.0569 5.25175 51.8205 5.25 50.375V21.5C5.25 20.0562 5.7645 18.8207 6.7935 17.7935C7.8225 16.7662 9.058 16.2517 10.5 16.25H21V11C21 9.55625 21.5145 8.32075 22.5435 7.2935C23.5725 6.26625 24.808 5.75175 26.25 5.75H36.75C38.1937 5.75 39.4301 6.2645 40.4591 7.2935C41.4881 8.3225 42.0018 9.558 42 11V16.25H52.5C53.9437 16.25 55.1801 16.7645 56.2091 17.7935C57.2381 18.8225 57.7518 20.058 57.75 21.5V50.375C57.75 51.8187 57.2364 53.0551 56.2091 54.0841C55.1819 55.1131 53.9455 55.6268 52.5 55.625H10.5ZM26.25 16.25H36.75V11H26.25V16.25Z" fill="white"/>
</svg>
