<svg width="63" height="64" viewBox="0 0 63 64" fill="none" xmlns="http://www.w3.org/2000/svg">
<path fill-rule="evenodd" clip-rule="evenodd" d="M23.5252 48.9811C15.7999 43.0618 5.25 33.2836 5.25 24.0384C5.25 8.59289 19.6875 2.82576 31.5 14.7538C43.3125 2.82576 57.75 8.59289 57.75 24.0384C57.75 33.2836 47.1975 43.0618 39.4748 48.9811C35.9783 51.6586 34.23 53 31.5 53C28.77 53 27.0217 51.6613 23.5252 48.9811ZM43.3125 16.9063C43.8346 16.9063 44.3354 17.1137 44.7046 17.4829C45.0738 17.8521 45.2812 18.3529 45.2812 18.875V22.1563H48.5625C49.0846 22.1563 49.5854 22.3637 49.9546 22.7329C50.3238 23.1021 50.5312 23.6029 50.5312 24.125C50.5312 24.6472 50.3238 25.1479 49.9546 25.5171C49.5854 25.8863 49.0846 26.0938 48.5625 26.0938H45.2812V29.375C45.2812 29.8972 45.0738 30.3979 44.7046 30.7671C44.3354 31.1363 43.8346 31.3438 43.3125 31.3438C42.7904 31.3438 42.2896 31.1363 41.9204 30.7671C41.5512 30.3979 41.3438 29.8972 41.3438 29.375V26.0938H38.0625C37.5404 26.0938 37.0396 25.8863 36.6704 25.5171C36.3012 25.1479 36.0938 24.6472 36.0938 24.125C36.0938 23.6029 36.3012 23.1021 36.6704 22.7329C37.0396 22.3637 37.5404 22.1563 38.0625 22.1563H41.3438V18.875C41.3438 18.3529 41.5512 17.8521 41.9204 17.4829C42.2896 17.1137 42.7904 16.9063 43.3125 16.9063Z" fill="white"/>
</svg>
