<svg width="63" height="64" viewBox="0 0 63 64" fill="none" xmlns="http://www.w3.org/2000/svg">
<path d="M5.25 29.375L18.375 5.75L31.5 29.375H5.25ZM18.375 55.625C15.4875 55.625 13.0156 54.5969 10.9594 52.5406C8.90313 50.4844 7.875 48.0125 7.875 45.125C7.875 42.2375 8.90313 39.7656 10.9594 37.7094C13.0156 35.6531 15.4875 34.625 18.375 34.625C21.2625 34.625 23.7344 35.6531 25.7906 37.7094C27.8469 39.7656 28.875 42.2375 28.875 45.125C28.875 48.0125 27.8469 50.4844 25.7906 52.5406C23.7344 54.5969 21.2625 55.625 18.375 55.625ZM34.125 55.625V34.625H55.125V55.625H34.125ZM44.625 29.375C42.1312 27.275 40.0426 25.5031 38.3591 24.0594C36.6756 22.6156 35.3299 21.3469 34.3219 20.2531C33.3139 19.1594 32.592 18.1312 32.1562 17.1687C31.7205 16.2063 31.5018 15.1781 31.5 14.0844C31.5 12.1156 32.1895 10.4531 33.5685 9.09688C34.9475 7.74063 36.6642 7.0625 38.7188 7.0625C39.9 7.0625 41.0051 7.33637 42.0341 7.88412C43.0631 8.43187 43.9268 9.18612 44.625 10.1469C45.325 9.18437 46.1895 8.43012 47.2185 7.88412C48.2475 7.33812 49.3517 7.06425 50.5312 7.0625C52.5875 7.0625 54.3051 7.74063 55.6841 9.09688C57.0631 10.4531 57.7518 12.1156 57.75 14.0844C57.75 15.1781 57.5312 16.2063 57.0938 17.1687C56.6562 18.1312 55.9344 19.1594 54.9281 20.2531C53.9219 21.3469 52.577 22.6156 50.8935 24.0594C49.21 25.5031 47.1205 27.275 44.625 29.375Z" fill="white"/>
</svg>
