<svg width="63" height="64" viewBox="0 0 63 64" fill="none" xmlns="http://www.w3.org/2000/svg">
<path d="M31.5 26.75C32.7065 26.75 33.9012 26.5124 35.0159 26.0506C36.1306 25.5889 37.1434 24.9122 37.9965 24.059C38.8497 23.2059 39.5264 22.1931 39.9881 21.0784C40.4499 19.9637 40.6875 18.769 40.6875 17.5625C40.6875 16.356 40.4499 15.1613 39.9881 14.0466C39.5264 12.9319 38.8497 11.9191 37.9965 11.066C37.1434 10.2128 36.1306 9.53607 35.0159 9.07436C33.9012 8.61264 32.7065 8.375 31.5 8.375C29.0633 8.375 26.7264 9.34297 25.0035 11.066C23.2805 12.7889 22.3125 15.1258 22.3125 17.5625C22.3125 19.9992 23.2805 22.3361 25.0035 24.059C26.7264 25.782 29.0633 26.75 31.5 26.75ZM7.875 54.05V55.625H55.125V54.05C55.125 48.17 55.125 45.23 53.9805 42.983C52.9738 41.0074 51.3676 39.4012 49.392 38.3945C47.145 37.25 44.205 37.25 38.325 37.25H24.675C18.795 37.25 15.855 37.25 13.608 38.3945C11.6324 39.4012 10.0262 41.0074 9.0195 42.983C7.875 45.23 7.875 48.17 7.875 54.05Z" fill="white" stroke="white" stroke-width="5.25" stroke-linecap="round" stroke-linejoin="round"/>
</svg>
