<svg width="63" height="64" viewBox="0 0 63 64" fill="none" xmlns="http://www.w3.org/2000/svg">
<path d="M42 29.375C46.3575 29.375 49.8488 25.8575 49.8488 21.5C49.8488 17.1425 46.3575 13.625 42 13.625C37.6425 13.625 34.125 17.1425 34.125 21.5C34.125 25.8575 37.6425 29.375 42 29.375ZM21 29.375C25.3575 29.375 28.8487 25.8575 28.8487 21.5C28.8487 17.1425 25.3575 13.625 21 13.625C16.6425 13.625 13.125 17.1425 13.125 21.5C13.125 25.8575 16.6425 29.375 21 29.375ZM21 34.625C14.8837 34.625 2.625 37.6963 2.625 43.8125V47.75C2.625 49.1937 3.80625 50.375 5.25 50.375H36.75C38.1937 50.375 39.375 49.1937 39.375 47.75V43.8125C39.375 37.6963 27.1162 34.625 21 34.625ZM42 34.625C41.2388 34.625 40.3725 34.6775 39.4538 34.7563C39.5062 34.7825 39.5325 34.835 39.5588 34.8612C42.5513 37.04 44.625 39.9538 44.625 43.8125V47.75C44.625 48.6688 44.4412 49.5612 44.1525 50.375H57.75C59.1937 50.375 60.375 49.1937 60.375 47.75V43.8125C60.375 37.6963 48.1162 34.625 42 34.625Z" fill="white"/>
</svg>
