<svg width="63" height="64" viewBox="0 0 63 64" fill="none" xmlns="http://www.w3.org/2000/svg">
<path d="M31.5 11C34.4137 11 36.75 13.3363 36.75 16.25C36.75 19.1637 34.4137 21.5 31.5 21.5C28.5863 21.5 26.25 19.1637 26.25 16.25C26.25 13.3363 28.6125 11 31.5 11ZM55.125 42.5V37.25C49.245 37.25 44.205 34.73 40.425 30.215L36.9075 26.015C36.4191 25.423 35.8057 24.9465 35.1113 24.6197C34.4169 24.2929 33.6587 24.124 32.8912 24.125H30.1875C28.5863 24.125 27.1162 24.8075 26.1187 26.015L22.6012 30.215C18.795 34.73 13.755 37.25 7.875 37.25V42.5C15.1462 42.5 21.4987 39.4287 26.25 33.9688V39.875L16.065 43.9437C14.3062 44.6525 13.125 46.4375 13.125 48.3012C13.125 50.9 15.225 53 17.8237 53H23.625V51.6875C23.625 49.947 24.3164 48.2778 25.5471 47.0471C26.7778 45.8164 28.447 45.125 30.1875 45.125H38.0625C38.7975 45.125 39.375 45.7025 39.375 46.4375C39.375 47.1725 38.7975 47.75 38.0625 47.75H30.1875C28.0088 47.75 26.25 49.5088 26.25 51.6875V53H45.1762C47.775 53 49.875 50.9 49.875 48.3012C49.875 46.4375 48.6937 44.6525 46.935 43.9437L36.75 39.875V33.9688C41.5013 39.4287 47.8537 42.5 55.125 42.5Z" fill="white"/>
</svg>
