<svg width="22" height="22" viewBox="0 0 22 22" fill="none" xmlns="http://www.w3.org/2000/svg">
<path d="M11.88 6.01723L16.654 7.28823M10.858 9.81323L13.244 10.4492M10.977 16.9662L11.931 17.2212C14.631 17.9412 15.981 18.3002 17.045 17.6892C18.108 17.0792 18.47 15.7362 19.193 13.0522L20.216 9.25523C20.94 6.57023 21.301 5.22823 20.687 4.17023C20.073 3.11223 18.724 2.75323 16.023 2.03423L15.069 1.77923C12.369 1.05923 11.019 0.700229 9.95599 1.31123C8.89199 1.92123 8.52999 3.26423 7.80599 5.94823L6.78399 9.74523C6.05999 12.4302 5.69799 13.7722 6.31299 14.8302C6.92699 15.8872 8.27699 16.2472 10.977 16.9662Z" stroke="white" stroke-width="1.5" stroke-linecap="round" stroke-linejoin="round"/>
<path d="M11 19.9462L10.048 20.2062C7.35403 20.9392 6.00803 21.3062 4.94603 20.6832C3.88603 20.0612 3.52403 18.6932 2.80303 15.9552L1.78203 12.0832C1.06003 9.34616 0.699027 7.97716 1.31203 6.89916C1.84203 5.96616 3.00003 6.00016 4.50003 6.00016" stroke="white" stroke-width="1.5" stroke-linecap="round" stroke-linejoin="round"/>
</svg>
